<svg viewBox="0 0 350 107.79434404016055" preserveAspectRatio="xMidYMid meet" class="css-c68jf5" id="ehadfbdh"><defs id="SvgjsDefs1206"></defs><g id="SvgjsG1207" featurekey="HWvxnO-0" transform="matrix(2.670532630244583,0,0,2.670532630244583,0,7.424072358515652)" fill="#ffffff"><path d="M24.7 10 c0.04 -0.04 0.1 -0.06 0.16 -0.06 c0.22 0 0.48 0.18 0.48 0.34 c0 0.04 -0.02 0.08 -0.06 0.12 c0 0 -4.8 17.78 -16.78 17.78 c-5.88 0 -8.5 -3.32 -8.5 -6.78 c0 -3.5 2.7 -7.14 7.48 -7.58 c0.1 -1.22 0.44 -2.52 1.04 -3.8 c-3.02 -0.66 -4.58 -2.3 -4.58 -3.96 c0 -2.14 2.6 -4.26 8.08 -4.26 c1.78 0 3.38 0.24 4.84 0.66 c1.46 -0.52 3.06 -0.82 4.78 -0.82 c1.5 0 2.2 0.62 2.2 1.54 c0 0.72 -0.44 1.62 -1.22 2.54 c1.28 1.26 1.96 2.56 1.96 3.56 c0 0.22 -0.1 0.34 -0.2 0.34 s-0.2 -0.12 -0.2 -0.34 c0 -0.76 -0.66 -1.98 -1.9 -3.18 c-2.02 2.12 -5.92 4.24 -10.76 4.24 c-0.3 0 -0.6 -0.02 -0.9 -0.04 c-0.6 1.18 -1.04 2.38 -1.24 3.5 c3.88 0.34 5.9 2.92 6.18 5.44 c4.66 -1.52 7.8 -7.88 9.14 -9.24 z M11.52 9.94 c4.36 0 8.3 -2.2 10.32 -4.26 c-1.08 -0.96 -2.54 -1.88 -4.32 -2.54 c-2.78 1.4 -5.2 4.02 -6.68 6.78 c0.22 0 0.44 0.02 0.68 0.02 z M21.64 2.120000000000001 c-1.22 0.02 -2.42 0.28 -3.56 0.76 c1.66 0.66 3.04 1.52 4.1 2.44 c0.7 -0.8 1.08 -1.56 1.08 -2.12 c0 -0.66 -0.48 -1.08 -1.62 -1.08 z M12.02 2.1999999999999993 c-4.94 0 -7.18 1.88 -7.18 3.78 c0 1.48 1.36 2.98 3.9 3.62 c1.44 -2.8 4.02 -5.44 7.44 -6.88 c-1.24 -0.32 -2.64 -0.52 -4.16 -0.52 z M14.8 19.44 c-0.3 -2.3 -2.02 -4.86 -5.5 -5.22 c-0.06 0.4 -0.1 0.8 -0.1 1.16 c0 2.42 1.28 4.18 4.36 4.18 c0.42 0 0.84 -0.04 1.24 -0.12 z M7.44 27.66 c6.42 0 10.22 -5.9 13.46 -10.88 c-1.36 1.42 -3.06 2.62 -5.3 3.06 c0 1.22 -0.42 2.38 -1.24 3.22 c-0.04 0.04 -0.1 0.06 -0.16 0.06 c-0.14 0 -0.34 -0.12 -0.34 -0.28 c0 -0.04 0.04 -0.12 0.1 -0.18 c0.6 -0.62 0.88 -1.6 0.88 -2.72 c-0.34 0.04 -0.68 0.06 -1.04 0.06 c-4.54 0 -6.34 -2.56 -6.34 -5.78 c-4.3 0.46 -6.5 3.86 -6.5 7.12 c0 3.22 2.14 6.32 6.48 6.32 z M30.7 15.280000000000001 l0.32 0.02 s-1.78 4.7 -3.86 4.7 c-1.28 0 -2.22 -0.72 -2.22 -2.18 c0 -1.48 4.24 -12.82 4.24 -12.82 l1.66 0 s-4.38 11.88 -4.38 13.52 c0 0.6 0.36 0.94 0.84 0.94 c1.6 0 3.4 -4.18 3.4 -4.18 z M35.58 15.280000000000001 l0.32 0.02 s-1.78 4.7 -3.86 4.7 c-1.28 0 -2.22 -0.72 -2.22 -2.18 c0 -0.98 2.72 -7.82 2.72 -7.82 l1.66 0 s-2.86 7.34 -2.86 8.52 c0 0.6 0.36 0.94 0.84 0.94 c1.6 0 3.4 -4.18 3.4 -4.18 z M34.04 8.26 c-0.62 0 -1.14 -0.5 -1.14 -1.14 c0 -0.62 0.52 -1.12 1.14 -1.12 s1.12 0.5 1.12 1.12 c0 0.64 -0.5 1.14 -1.12 1.14 z M40.94 9.76 c0.14 0 0.22 0.12 0.22 0.24 s-0.08 0.24 -0.22 0.24 l-2.1 0 c-1.24 3.4 -2.62 7.38 -2.62 8.28 c0 0.6 0.36 0.94 0.84 0.94 c1.6 0 3.4 -4.18 3.4 -4.18 l0.32 0.02 s-1.78 4.7 -3.86 4.7 c-1.28 0 -2.22 -0.72 -2.22 -2.18 c0 -0.78 1.26 -4.4 2.44 -7.58 l-1.64 0 c-0.16 0 -0.24 -0.12 -0.24 -0.24 s0.08 -0.24 0.24 -0.24 l1.82 0 c0.96 -2.58 1.82 -4.76 1.82 -4.76 l1.66 0 s-0.82 2.16 -1.78 4.76 l1.92 0 z M49.5 15.3 l0.34 0.02 s-1.82 4.68 -3.88 4.68 l-4.76 0 l5.14 -9.3 c-0.12 0 -0.24 0.02 -0.38 0.02 c-1.42 0 -2.84 -0.4 -2.84 -0.4 c-0.18 0 -0.34 0.12 -0.4 0.28 l-2.22 5.28 l-0.38 0 l2.4 -5.6 c0.02 -0.02 0.14 -0.28 0.66 -0.28 c0 0 1.36 0.36 2.7 0.36 c0.86 0 1.7 -0.14 2.18 -0.62 c0.06 -0.06 0.1 -0.08 0.16 -0.08 c0.14 0 0.28 0.12 0.28 0.24 c0 0.04 -0.02 0.08 -0.04 0.1 l-5.06 9.48 l2.7 -0.02 c1.6 0 3.4 -4.14 3.4 -4.16 z M81.53999999999999 20.68 c0.02 -0.02 0.06 -0.02 0.12 -0.02 c0.1 0 0.24 0.04 0.24 0.16 c0 0.04 -0.02 0.1 -0.1 0.18 c-0.34 0.34 -2.84 4 -6.64 4 c-4.22 0 -5.54 -2.32 -5.54 -5.48 c0 -5.32 3.76 -12.96 3.76 -15.7 c0 -0.6 -0.36 -0.96 -0.84 -0.96 c-3.68 0 -8.58 14.52 -8.58 14.52 l-0.04 0 c-0.46 1.26 -0.76 2.2 -0.76 2.64 l-1.78 0.02 c0 -2.5 4.92 -12.26 4.92 -17.98 c0 -2.52 -0.94 -4.26 -3.68 -4.26 c-6.5 0 -12.08 9.12 -12.08 14.7 c0 2.48 1.08 4.24 3.66 4.24 c5.04 0 8.94 -7.64 8.94 -10.66 c0 -0.36 0.16 -0.54 0.3 -0.54 c0.18 0 0.36 0.22 0.36 0.64 c0 3.44 -3.74 11.18 -9.86 11.18 c-3.44 0 -4.9 -2.24 -4.9 -5.22 c0 -5.96 5.84 -14.92 13.42 -14.92 c4.02 0 5.32 2.42 5.32 5.72 c0 1.54 -0.28 3.26 -0.7 5 c1.64 -3.04 3.64 -5.62 5.6 -5.62 c1.28 0 2.22 0.74 2.22 2.18 c0 3 -3.18 10.66 -3.18 15.58 c0 2.58 0.88 4.42 3.56 4.42 c3.28 0 6.26 -3.82 6.26 -3.82 z M99.60000000000001 10 c0.04 -0.04 0.1 -0.06 0.16 -0.06 c0.22 0 0.48 0.18 0.48 0.34 c0 0.04 -0.02 0.08 -0.06 0.12 c0 0 -4.8 17.78 -16.78 17.78 c-5.88 0 -8.5 -3.32 -8.5 -6.78 c0 -3.5 2.7 -7.14 7.48 -7.58 c0.1 -1.22 0.44 -2.52 1.04 -3.8 c-3.02 -0.66 -4.58 -2.3 -4.58 -3.96 c0 -2.14 2.6 -4.26 8.08 -4.26 c1.78 0 3.38 0.24 4.84 0.66 c1.46 -0.52 3.06 -0.82 4.78 -0.82 c1.5 0 2.2 0.62 2.2 1.54 c0 0.72 -0.44 1.62 -1.22 2.54 c1.28 1.26 1.96 2.56 1.96 3.56 c0 0.22 -0.1 0.34 -0.2 0.34 s-0.2 -0.12 -0.2 -0.34 c0 -0.76 -0.66 -1.98 -1.9 -3.18 c-2.02 2.12 -5.92 4.24 -10.76 4.24 c-0.3 0 -0.6 -0.02 -0.9 -0.04 c-0.6 1.18 -1.04 2.38 -1.24 3.5 c3.88 0.34 5.9 2.92 6.18 5.44 c4.66 -1.52 7.8 -7.88 9.14 -9.24 z M86.42 9.94 c4.36 0 8.3 -2.2 10.32 -4.26 c-1.08 -0.96 -2.54 -1.88 -4.32 -2.54 c-2.78 1.4 -5.2 4.02 -6.68 6.78 c0.22 0 0.44 0.02 0.68 0.02 z M96.54 2.120000000000001 c-1.22 0.02 -2.42 0.28 -3.56 0.76 c1.66 0.66 3.04 1.52 4.1 2.44 c0.7 -0.8 1.08 -1.56 1.08 -2.12 c0 -0.66 -0.48 -1.08 -1.62 -1.08 z M86.92 2.1999999999999993 c-4.94 0 -7.18 1.88 -7.18 3.78 c0 1.48 1.36 2.98 3.9 3.62 c1.44 -2.8 4.02 -5.44 7.44 -6.88 c-1.24 -0.32 -2.64 -0.52 -4.16 -0.52 z M89.7 19.44 c-0.3 -2.3 -2.02 -4.86 -5.5 -5.22 c-0.06 0.4 -0.1 0.8 -0.1 1.16 c0 2.42 1.28 4.18 4.36 4.18 c0.42 0 0.84 -0.04 1.24 -0.12 z M82.34 27.66 c6.42 0 10.22 -5.9 13.46 -10.88 c-1.36 1.42 -3.06 2.62 -5.3 3.06 c0 1.22 -0.42 2.38 -1.24 3.22 c-0.04 0.04 -0.1 0.06 -0.16 0.06 c-0.14 0 -0.34 -0.12 -0.34 -0.28 c0 -0.04 0.04 -0.12 0.1 -0.18 c0.6 -0.62 0.88 -1.6 0.88 -2.72 c-0.34 0.04 -0.68 0.06 -1.04 0.06 c-4.54 0 -6.34 -2.56 -6.34 -5.78 c-4.3 0.46 -6.5 3.86 -6.5 7.12 c0 3.22 2.14 6.32 6.48 6.32 z M105.60000000000001 15.280000000000001 l0.32 0.02 s-1.78 4.7 -3.86 4.7 c-1.28 0 -2.22 -0.72 -2.22 -2.18 c0 -1.48 4.24 -12.82 4.24 -12.82 l1.66 0 s-4.38 11.88 -4.38 13.52 c0 0.6 0.36 0.94 0.84 0.94 c1.6 0 3.4 -4.18 3.4 -4.18 z M115.76 15.26 l0.34 0.04 s-1.8 4.7 -3.88 4.7 c-1.28 0 -2.22 -0.72 -2.22 -2.18 c-0.86 1.28 -1.86 2.18 -2.76 2.18 c-1.5 0 -2.12 -1.16 -2.12 -2.68 c0 -2.96 2.36 -7.32 5.22 -7.32 c1.1 0 1.6 0.74 1.66 1.82 c0.42 -1.06 0.72 -1.82 0.72 -1.82 l1.66 0 s-2.84 7.34 -2.84 8.52 c0 0.6 0.36 0.94 0.82 0.94 c1.6 0 3.4 -4.2 3.4 -4.2 z M107.38000000000001 19.48 c1.64 0 4 -5.02 4 -7.56 c0 -0.84 -0.28 -1.42 -0.92 -1.42 c-1.7 0 -3.86 5.12 -3.86 7.64 c0 0.8 0.24 1.34 0.78 1.34 z M130.72 15.280000000000001 l0.34 0.02 s-1.78 4.7 -3.86 4.7 c-1.3 0 -2.22 -0.72 -2.22 -2.16 c0 -0.78 1.86 -5.94 1.86 -6.36 c0 -0.6 -0.36 -0.94 -0.84 -0.94 c-1.2 0 -2.5 2.34 -3.08 3.52 c-0.68 2.36 -1.88 5.94 -1.88 5.94 l-1.66 0 s2.44 -7.34 2.44 -8.52 c0 -0.6 -0.36 -0.94 -0.84 -0.94 c-1.18 0 -2.48 2.3 -3.06 3.5 l-1.98 5.96 l-1.78 0 l3.42 -10 l1.66 0 l-0.7 2.12 c0.7 -1.1 1.6 -2.12 2.58 -2.12 c1.3 0 2.22 0.72 2.22 2.16 c0 0.1 -0.02 0.24 -0.04 0.42 c0.7 -1.26 1.74 -2.58 2.84 -2.58 c1.28 0 2.22 0.72 2.22 2.16 c0 0.66 -1.86 5.24 -1.86 6.36 c0 0.6 0.36 0.94 0.84 0.94 c1.6 0 3.38 -4.18 3.38 -4.18 z"></path></g><g id="SvgjsG1208" featurekey="UyFMmJ-0" transform="matrix(1.1380262976575117,0,0,1.1380262976575117,34.772392244263656,84.73793098914582)" fill="#ffffff"><path d="M14.52 7.58 c1.34 0.06 2.68 0.06 4.02 0 l0 0.5 c-1.06 0.12 -1.64 0.22 -1.8 0.72 l-3.66 11.38 l-0.74 0 l-3.14 -8.92 l-2.82 8.92 l-0.74 0 l-3.98 -11.38 c-0.16 -0.46 -0.4 -0.6 -1.46 -0.72 l0 -0.5 c1.6 0.06 3.12 0.06 4.68 0 l0 0.5 c-1.02 0.12 -1.4 0.26 -1.24 0.72 l3.02 8.78 l2.2 -7.3 l-0.52 -1.48 c-0.16 -0.46 -0.36 -0.6 -1.32 -0.72 l0 -0.5 c1.5 0.06 3.02 0.06 4.62 0 l0 0.5 c-1.04 0.12 -1.46 0.26 -1.3 0.72 l3.02 8.78 l2.7 -8.78 c0.16 -0.5 -0.48 -0.6 -1.54 -0.72 l0 -0.5 z M31.1 8.08 c-1.04 0.12 -1.42 0.24 -1.42 0.74 l0 9.92 c0 0.5 0.38 0.64 1.42 0.74 l0 0.52 c-1.54 -0.06 -3.2 -0.06 -4.76 0 l0 -0.52 c1.06 -0.1 1.44 -0.24 1.44 -0.74 l0 -4.66 l-5.22 0 l0 4.66 c0 0.5 0.38 0.64 1.44 0.74 l0 0.52 c-1.56 -0.06 -3.2 -0.06 -4.76 0 l0 -0.52 c1.06 -0.1 1.44 -0.24 1.44 -0.74 l0 -9.92 c0 -0.5 -0.38 -0.62 -1.44 -0.74 l0 -0.5 c1.56 0.06 3.2 0.06 4.76 0 l0 0.5 c-1.06 0.12 -1.44 0.24 -1.44 0.74 l0 4.68 l5.22 0 l0 -4.68 c0 -0.5 -0.38 -0.62 -1.44 -0.74 l0 -0.5 c1.56 0.06 3.22 0.06 4.76 0 l0 0.5 z M40.660000000000004 16.9 l0.58 0 c-0.34 1.08 -0.5 2.06 -0.58 3.08 c-3 -0.04 -5.62 -0.04 -8.56 0 l0 -0.6 c1.06 -0.1 1.4 -0.2 1.4 -0.7 l0 -9.88 c0 -0.5 -0.34 -0.64 -1.4 -0.72 l0 -0.5 l8.22 0 c0.26 0 0.3 0.06 0.34 0.36 l0.24 2.12 l-0.54 0 l-0.2 -0.42 c-0.54 -1.04 -1.14 -1.46 -2.12 -1.46 l-2.48 0 c-0.1 0 -0.18 0.08 -0.18 0.18 l0 5.02 l2.62 0 c1 0 1.18 -0.54 1.36 -1.32 l0.5 0 c-0.1 1.08 -0.1 2.16 0 3.24 l-0.5 0 c-0.18 -0.8 -0.36 -1.32 -1.36 -1.32 l-2.62 0 l0 5.22 c0 0.1 0.08 0.16 0.18 0.16 l2.26 0 c1.18 0 1.8 -0.36 2.2 -1.18 z M49.800000000000004 17.12 c1.08 1.5 2.28 2.48 3.04 2.52 l-0.34 0.52 c-1.64 0 -2.88 -0.72 -4.32 -2.56 l-2.04 -2.64 c-0.06 0 -0.12 0.02 -0.18 0.02 l-0.56 0.06 l0 3.72 c0 0.5 0.34 0.64 1.4 0.72 l0 0.52 c-1.56 -0.06 -3.12 -0.06 -4.68 0 l0 -0.52 c1.06 -0.08 1.4 -0.22 1.4 -0.72 l0 -9.56 c0 -0.58 -0.28 -1 -1.36 -1.12 l0 -0.5 c1.74 0.08 3.56 0 4.82 0 c4.04 0 4.96 1.7 4.96 3.4 c0 1.42 -1.02 2.9 -3.94 3.64 z M45.400000000000006 8.18 l0 6.26 l0.6 -0.08 c3.1 -0.42 3.98 -1.76 3.98 -3.46 c0 -1.46 -0.84 -2.72 -2.78 -2.72 l-1.8 0 z M62.2 16.9 l0.58 0 c-0.34 1.08 -0.5 2.06 -0.58 3.08 c-3 -0.04 -5.62 -0.04 -8.56 0 l0 -0.6 c1.06 -0.1 1.4 -0.2 1.4 -0.7 l0 -9.88 c0 -0.5 -0.34 -0.64 -1.4 -0.72 l0 -0.5 l8.22 0 c0.26 0 0.3 0.06 0.34 0.36 l0.24 2.12 l-0.54 0 l-0.2 -0.42 c-0.54 -1.04 -1.14 -1.46 -2.12 -1.46 l-2.48 0 c-0.1 0 -0.18 0.08 -0.18 0.18 l0 5.02 l2.62 0 c1 0 1.18 -0.54 1.36 -1.32 l0.5 0 c-0.1 1.08 -0.1 2.16 0 3.24 l-0.5 0 c-0.18 -0.8 -0.36 -1.32 -1.36 -1.32 l-2.62 0 l0 5.22 c0 0.1 0.08 0.16 0.18 0.16 l2.26 0 c1.18 0 1.8 -0.36 2.2 -1.18 z M76.86 16.92 l0.58 0 c-0.34 1.1 -0.5 2.06 -0.58 3.08 c-3 -0.06 -5.7 -0.06 -8.64 0 l0 -0.58 c1.06 -0.12 1.4 -0.22 1.4 -0.72 l0 -9.88 c0 -0.5 -0.38 -0.62 -1.44 -0.74 l0 -0.5 c1.56 0.06 3.2 0.06 4.76 0 l0 0.5 c-1.06 0.12 -1.44 0.24 -1.44 0.74 l0 10.4 c0 0.1 0.08 0.16 0.18 0.16 l2.34 0 c1.18 0 1.8 -0.34 2.2 -1.18 z M83.86 7.26 c3.32 0 5.64 2.82 5.64 6.52 c0 3.66 -2.22 6.48 -5.54 6.48 s-5.64 -2.84 -5.64 -6.54 c0 -3.66 2.22 -6.46 5.54 -6.46 z M84.18 19.66 c1.64 0 3.28 -1.26 3.28 -5.3 c0 -3.8 -1.64 -6.52 -3.92 -6.52 c-1.54 0 -3.18 1.28 -3.18 5.32 c0 3.78 1.64 6.5 3.82 6.5 z M95.36 20.18 l-4.3 -11.38 c-0.18 -0.46 -0.4 -0.6 -1.46 -0.72 l0 -0.5 c1.6 0.06 3.1 0.06 4.68 0 l0 0.5 c-1.04 0.12 -1.42 0.26 -1.24 0.72 l3.36 8.78 l3.02 -8.78 c0.18 -0.5 -0.44 -0.6 -1.48 -0.72 l0 -0.5 c1.32 0.06 2.62 0.06 3.96 0 l0 0.5 c-1.06 0.12 -1.62 0.22 -1.8 0.72 l-4 11.38 l-0.74 0 z M111.16000000000001 16.9 l0.58 0 c-0.34 1.08 -0.5 2.06 -0.58 3.08 c-3 -0.04 -5.62 -0.04 -8.56 0 l0 -0.6 c1.06 -0.1 1.4 -0.2 1.4 -0.7 l0 -9.88 c0 -0.5 -0.34 -0.64 -1.4 -0.72 l0 -0.5 l8.22 0 c0.26 0 0.3 0.06 0.34 0.36 l0.24 2.12 l-0.54 0 l-0.2 -0.42 c-0.54 -1.04 -1.14 -1.46 -2.12 -1.46 l-2.48 0 c-0.1 0 -0.18 0.08 -0.18 0.18 l0 5.02 l2.62 0 c1 0 1.18 -0.54 1.36 -1.32 l0.5 0 c-0.1 1.08 -0.1 2.16 0 3.24 l-0.5 0 c-0.18 -0.8 -0.36 -1.32 -1.36 -1.32 l-2.62 0 l0 5.22 c0 0.1 0.08 0.16 0.18 0.16 l2.26 0 c1.18 0 1.8 -0.36 2.2 -1.18 z M129.84 18.74 c0 0.5 0.38 0.64 1.42 0.74 l0 0.52 c-1.54 -0.06 -3.2 -0.06 -4.74 0 l0 -0.52 c1.04 -0.1 1.42 -0.24 1.42 -0.74 l0 -9.42 l-3.92 10.68 l-4.54 -10.72 l0 9.46 c0 0.5 0.58 0.62 1.84 0.74 l0 0.52 c-1.44 -0.06 -2.9 -0.06 -4.28 0 l0 -0.52 c1.24 -0.12 1.78 -0.24 1.78 -0.74 l0 -9.8 c0 -0.56 -0.54 -0.74 -1.58 -0.86 l0 -0.5 c1.16 0.06 2.32 0.06 3.48 0 l3.8 9.18 l3.38 -9.18 c1.06 0.06 2.24 0.06 3.32 0 l0 0.48 c-1 0.1 -1.38 0.24 -1.38 0.74 l0 9.94 z M140.62 16.9 l0.58 0 c-0.34 1.08 -0.5 2.06 -0.58 3.08 c-3 -0.04 -5.62 -0.04 -8.56 0 l0 -0.6 c1.06 -0.1 1.4 -0.2 1.4 -0.7 l0 -9.88 c0 -0.5 -0.34 -0.64 -1.4 -0.72 l0 -0.5 l8.22 0 c0.26 0 0.3 0.06 0.34 0.36 l0.24 2.12 l-0.54 0 l-0.2 -0.42 c-0.54 -1.04 -1.14 -1.46 -2.12 -1.46 l-2.48 0 c-0.1 0 -0.18 0.08 -0.18 0.18 l0 5.02 l2.62 0 c1 0 1.18 -0.54 1.36 -1.32 l0.5 0 c-0.1 1.08 -0.1 2.16 0 3.24 l-0.5 0 c-0.18 -0.8 -0.36 -1.32 -1.36 -1.32 l-2.62 0 l0 5.22 c0 0.1 0.08 0.16 0.18 0.16 l2.26 0 c1.18 0 1.8 -0.36 2.2 -1.18 z M150.64000000000001 16.9 l0.58 0 c-0.34 1.08 -0.5 2.06 -0.58 3.08 c-3 -0.04 -5.62 -0.04 -8.56 0 l0 -0.6 c1.06 -0.1 1.4 -0.2 1.4 -0.7 l0 -9.88 c0 -0.5 -0.34 -0.64 -1.4 -0.72 l0 -0.5 l8.22 0 c0.26 0 0.3 0.06 0.34 0.36 l0.24 2.12 l-0.54 0 l-0.2 -0.42 c-0.54 -1.04 -1.14 -1.46 -2.12 -1.46 l-2.48 0 c-0.1 0 -0.18 0.08 -0.18 0.18 l0 5.02 l2.62 0 c1 0 1.18 -0.54 1.36 -1.32 l0.5 0 c-0.1 1.08 -0.1 2.16 0 3.24 l-0.5 0 c-0.18 -0.8 -0.36 -1.32 -1.36 -1.32 l-2.62 0 l0 5.22 c0 0.1 0.08 0.16 0.18 0.16 l2.26 0 c1.18 0 1.8 -0.36 2.2 -1.18 z M161.24 7.380000000000001 l0.44 0 l-0.7 2.72 l-0.54 0 c0.12 -1.42 0 -1.94 -0.82 -1.94 l-1.82 0 l0 10.58 c0 0.5 0.38 0.64 1.42 0.74 l0 0.52 c-1.54 -0.06 -3.2 -0.06 -4.74 0 l0 -0.52 c1.04 -0.1 1.42 -0.24 1.42 -0.74 l0 -10.58 l-1.64 0 c-0.82 0 -1.02 0.32 -1.82 1.94 l-0.54 0 l0.72 -2.72 l0.44 0 c0.5 0.14 0.76 0.2 1.7 0.2 l4.78 0 c0.94 0 1.22 -0.06 1.7 -0.2 z M169.00000000000003 17.46 c0 -1.6 -1.36 -2.3 -2.9 -3 c-1.9 -0.88 -3.5 -1.9 -3.5 -3.94 c0 -1.8 1.36 -3.26 3.68 -3.26 c1.5 0 2 0.46 2.46 0.46 c0.22 0 0.38 -0.04 0.46 -0.3 l0.52 0 l0.14 2.62 l-0.32 -0.02 c-0.22 -0.02 -0.32 -0.06 -0.42 -0.3 c-0.5 -1.06 -1.52 -1.88 -2.76 -1.88 c-1.36 0 -2.14 0.96 -2.14 2.06 c0 1.36 0.92 1.98 2.48 2.72 c1.64 0.76 4.14 1.68 4.14 4.16 c0 2.2 -2.04 3.48 -4 3.48 c-1.66 0 -2.46 -0.76 -3.04 -0.76 c-0.3 0 -0.5 0.2 -0.58 0.48 l-0.56 0 l-0.18 -2.8 l0.48 0 c0.18 0 0.26 0.08 0.36 0.3 c0.5 1.14 1.58 2.14 3.26 2.14 c1.5 0 2.42 -0.88 2.42 -2.16 z M184.82000000000005 16.92 l0.58 0 c-0.34 1.1 -0.5 2.06 -0.58 3.08 c-3 -0.06 -5.7 -0.06 -8.64 0 l0 -0.58 c1.06 -0.12 1.4 -0.22 1.4 -0.72 l0 -9.88 c0 -0.5 -0.38 -0.62 -1.44 -0.74 l0 -0.5 c1.56 0.06 3.2 0.06 4.76 0 l0 0.5 c-1.06 0.12 -1.44 0.24 -1.44 0.74 l0 10.4 c0 0.1 0.08 0.16 0.18 0.16 l2.34 0 c1.18 0 1.8 -0.34 2.2 -1.18 z M198.46000000000004 8.08 c-1.04 0.12 -1.42 0.24 -1.42 0.74 l0 9.92 c0 0.5 0.38 0.64 1.42 0.74 l0 0.52 c-1.54 -0.06 -2.68 -0.06 -3.64 0 l0 -0.52 c0.22 -0.18 0.32 -0.4 0.32 -0.74 l0 -0.94 c-0.58 1.1 -1.84 2.4 -4 2.4 c-2.4 0 -4 -1.6 -4 -3.98 l0 -7.4 c0 -0.5 -0.38 -0.62 -1.44 -0.74 l0 -0.5 c1.56 0.06 3.26 0.06 4.8 0 l0 0.5 c-1.04 0.12 -1.42 0.24 -1.42 0.74 l0 7.42 c0 1.98 0.96 3.26 2.6 3.26 c1.7 0 2.92 -1.42 3.46 -2.56 l0 -8.12 c0 -0.5 -0.38 -0.62 -1.44 -0.74 l0 -0.5 c1.56 0.06 3.22 0.06 4.76 0 l0 0.5 z M208.34000000000006 18.3 c0.46 0.8 0.72 1.1 1.62 1.18 l0 0.52 c-1.34 -0.06 -2.7 -0.06 -4.08 0 l0 -0.52 c0.58 -0.08 0.98 -0.3 0.8 -0.64 l-2.4 -4.02 l-2.48 3.82 c-0.32 0.5 0.14 0.76 0.92 0.84 l0 0.52 c-1.18 -0.06 -2.34 -0.06 -3.46 0 l0 -0.52 c0.8 -0.08 1.56 -0.44 2.02 -1.16 l2.64 -4.1 l-2.9 -4.86 c-0.42 -0.68 -0.86 -1.18 -1.76 -1.28 l0 -0.5 c1.34 0.06 2.78 0.06 4.12 0 l0 0.5 c-0.58 0.1 -0.88 0.44 -0.68 0.76 l2.26 3.78 l2.32 -3.58 c0.3 -0.44 -0.22 -0.86 -1.02 -0.96 l0 -0.5 c1.16 0.06 2.32 0.06 3.48 0 l0 0.5 c-0.86 0.1 -1.5 0.66 -1.92 1.28 l-2.5 3.86 z M223.52000000000004 8.08 c-1.04 0.12 -1.42 0.24 -1.42 0.74 l0 9.92 c0 0.5 0.38 0.64 1.42 0.74 l0 0.52 c-1.54 -0.06 -2.68 -0.06 -3.64 0 l0 -0.52 c0.22 -0.18 0.32 -0.4 0.32 -0.74 l0 -0.94 c-0.58 1.1 -1.84 2.4 -4 2.4 c-2.4 0 -4 -1.6 -4 -3.98 l0 -7.4 c0 -0.5 -0.38 -0.62 -1.44 -0.74 l0 -0.5 c1.56 0.06 3.26 0.06 4.8 0 l0 0.5 c-1.04 0.12 -1.42 0.24 -1.42 0.74 l0 7.42 c0 1.98 0.96 3.26 2.6 3.26 c1.7 0 2.92 -1.42 3.46 -2.56 l0 -8.12 c0 -0.5 -0.38 -0.62 -1.44 -0.74 l0 -0.5 c1.56 0.06 3.22 0.06 4.76 0 l0 0.5 z M232.00000000000006 17.12 c1.08 1.5 2.28 2.48 3.04 2.52 l-0.34 0.52 c-1.64 0 -2.88 -0.72 -4.32 -2.56 l-2.04 -2.64 c-0.06 0 -0.12 0.02 -0.18 0.02 l-0.56 0.06 l0 3.72 c0 0.5 0.34 0.64 1.4 0.72 l0 0.52 c-1.56 -0.06 -3.12 -0.06 -4.68 0 l0 -0.52 c1.06 -0.08 1.4 -0.22 1.4 -0.72 l0 -9.56 c0 -0.58 -0.28 -1 -1.36 -1.12 l0 -0.5 c1.74 0.08 3.56 0 4.82 0 c4.04 0 4.96 1.7 4.96 3.4 c0 1.42 -1.02 2.9 -3.94 3.64 z M227.60000000000005 8.18 l0 6.26 l0.6 -0.08 c3.1 -0.42 3.98 -1.76 3.98 -3.46 c0 -1.46 -0.84 -2.72 -2.78 -2.72 l-1.8 0 z M242.28000000000006 7.58 c1.32 0.04 2.64 0.04 3.96 0 l0 0.5 c-1.28 0.06 -1.66 0.38 -1.96 0.98 l-2.94 5.66 l0 4.02 c0 0.5 0.38 0.64 1.44 0.7 l0 0.56 c-1.56 -0.06 -3.22 -0.06 -4.76 0 l0 -0.52 c1.04 -0.1 1.42 -0.24 1.42 -0.74 l0 -3.94 l-3.28 -5.96 c-0.22 -0.4 -0.52 -0.7 -1.54 -0.76 l0 -0.5 c1.6 0.04 3.16 0.04 4.76 0 l0 0.5 c-1.06 0.06 -1.3 0.36 -1.08 0.76 l2.74 5.1 l2.56 -4.92 c0.3 -0.6 -0.06 -0.88 -1.32 -0.94 l0 -0.5 z"></path></g></svg>